<svg version="1.1" id="Layer_1" xmlns="http://www.w3.org/2000/svg" xmlns:xlink="http://www.w3.org/1999/xlink" x="0px" y="0px"
	 width="100%" viewBox="0 0 640 480" enable-background="new 0 0 640 480" xml:space="preserve">
<path fill="#000000" opacity="1.000000" stroke="none" 
	d="
M156.000000,1.000000 
	C317.591522,1.000000 479.183014,1.000000 641.000000,1.000000 
	C641.000000,146.024002 641.000000,291.048126 640.708557,436.508911 
	C631.875488,439.623688 623.376404,442.127960 619.050049,451.347137 
	C616.890015,455.950104 612.660400,459.060120 608.068542,461.102325 
	C601.479431,464.032806 595.904785,468.441071 590.224854,472.666199 
	C587.672363,474.564941 584.093628,476.566772 586.000000,481.000000 
	C391.093597,481.000000 196.187180,481.000000 1.000000,481.000000 
	C1.000000,378.976105 1.000000,276.951935 1.240842,174.621689 
	C2.085390,174.552429 2.792206,175.125473 3.277631,174.976608 
	C13.731841,171.770691 22.965218,167.209091 27.289560,155.980957 
	C30.272434,148.235931 34.234688,140.887894 37.492100,133.223099 
	C41.133984,124.653633 46.382065,116.728966 56.698650,115.407516 
	C63.978119,114.475098 69.318687,110.796104 74.453659,106.139343 
	C86.489342,95.224533 94.105949,81.045746 102.949020,67.781273 
	C114.160652,50.964008 127.486115,36.724365 147.320709,30.067856 
	C151.947678,28.515039 156.018875,25.975201 159.665955,22.691904 
	C162.765823,19.901253 163.532379,16.980101 160.798126,13.561672 
	C158.899460,11.187926 158.918488,8.261049 158.570862,5.494038 
	C158.324432,3.532572 157.843048,1.939237 156.000000,1.000000 
M290.219360,409.978119 
	C310.086609,415.061035 330.193481,415.229584 350.541565,413.839874 
	C368.296448,412.627228 384.682770,407.186066 400.586182,399.939270 
	C428.424835,387.253815 450.746063,367.425751 469.724487,343.915161 
	C490.774994,317.837708 505.631714,288.055878 518.565308,257.319916 
	C526.757385,237.851974 533.722900,217.923904 539.434998,197.576630 
	C541.453308,190.387314 543.456909,183.189056 545.224121,175.935638 
	C546.608215,170.254822 544.415710,164.583878 540.059937,161.833008 
	C535.576843,159.001740 532.288147,162.010544 528.713318,164.146851 
	C519.577148,169.606522 510.643066,175.451981 500.860992,179.744629 
	C496.202209,181.789047 491.545654,184.029053 486.149231,183.974289 
	C485.885498,183.125961 485.533173,182.509552 485.531555,181.892227 
	C485.526337,179.896194 485.494812,177.879868 485.748291,175.906677 
	C488.056519,157.939423 489.510406,139.923584 489.674255,121.791267 
	C489.785645,109.469810 489.284607,97.181755 488.584900,84.895248 
	C487.981140,74.293144 487.323151,63.691372 486.460785,53.108063 
	C486.098328,48.659599 485.281250,44.233063 484.425781,39.844330 
	C483.640594,35.816223 481.328247,32.730038 477.255890,31.665199 
	C473.466644,30.674391 470.020050,31.613335 467.347107,34.773365 
	C465.526855,36.925293 463.553223,38.918724 461.806213,41.167549 
	C455.581909,49.179588 449.503143,57.346596 441.904449,64.176384 
	C427.363495,77.246002 409.717896,84.548019 391.728668,91.251686 
	C363.754303,101.676346 334.359039,105.601601 305.149750,110.442192 
	C279.558777,114.683144 253.805664,118.278458 229.224304,127.097168 
	C209.720978,134.094101 192.087112,144.334335 177.443222,159.084778 
	C161.452850,175.191483 151.881149,194.767090 146.954636,216.921478 
	C143.172256,233.930740 144.464203,251.042816 144.619141,268.128632 
	C144.687973,275.718597 149.863037,281.096161 155.651108,281.562927 
	C161.339920,282.021637 164.423965,278.626373 166.712540,269.777618 
	C170.057144,256.845795 174.608704,244.354446 181.044113,232.617432 
	C191.792191,213.014908 206.585739,197.783981 227.951187,189.816528 
	C248.886627,182.009430 270.512726,181.427231 292.370056,184.039948 
	C318.287933,187.138031 343.681702,193.191742 369.279297,198.074539 
	C393.427887,202.680923 417.587097,206.946915 442.240295,207.685013 
	C446.625671,207.816299 450.991394,208.605530 455.349579,209.089111 
	C455.621246,211.846893 455.334900,214.093643 454.692139,216.373077 
	C451.071075,229.213959 445.845825,241.393539 440.118011,253.421631 
	C425.900330,283.277740 404.153229,305.571899 373.966248,319.165253 
	C337.736664,335.479614 299.866852,336.289917 261.407837,329.912415 
	C240.088089,326.377045 220.068863,318.550201 200.008301,310.911255 
	C195.101196,309.042633 194.648697,306.983887 197.959900,302.700226 
	C201.838547,297.682495 206.281876,293.178650 210.726349,288.669891 
	C223.363647,275.849823 238.068893,265.286102 250.456741,252.191742 
	C252.647293,249.876266 254.835449,247.608139 255.974930,244.564346 
	C257.824005,239.625153 256.569397,234.838425 253.169495,231.876495 
	C248.804001,228.073349 244.878357,229.802124 240.913406,232.375641 
	C239.659988,233.189209 238.522171,234.179733 237.322266,235.077011 
	C219.027222,248.757996 202.277283,264.079285 186.952698,281.064789 
	C178.576508,290.348785 170.703461,300.004913 163.549545,310.179077 
	C142.377548,340.289490 126.627373,373.201385 114.402122,407.846832 
	C112.136238,414.268219 110.023140,420.748840 108.667580,427.438843 
	C107.348793,433.947418 109.566719,437.992584 115.466743,440.025543 
	C120.184219,441.651093 124.486061,439.659912 127.220848,434.261871 
	C128.564194,431.610321 129.696518,428.794495 130.495148,425.933258 
	C138.290192,398.006409 149.782913,371.715424 165.181870,347.147186 
	C169.159882,340.800507 171.360916,340.595947 176.674957,346.031708 
	C183.777283,353.296722 191.396271,359.972351 199.496490,366.081787 
	C226.608704,386.530579 256.108582,402.092072 290.219360,409.978119 
z"/>
<path fill="#000000" opacity="1.000000" stroke="none" 
	d="
M293.760437,163.458450 
	C285.546692,162.705215 277.772552,162.307953 269.952728,162.429245 
	C242.265015,162.858795 216.681686,169.770416 194.375320,186.770981 
	C187.473923,192.030838 181.614777,198.424500 175.826981,204.864868 
	C174.540619,206.296280 173.711349,208.326111 171.088989,208.707855 
	C169.399948,206.151917 171.303696,204.036819 172.148499,201.938782 
	C183.197556,174.499161 204.499283,158.285202 231.326111,148.264847 
	C254.376877,139.654953 278.512787,135.695648 302.633026,131.469437 
	C328.503632,126.936508 354.529572,123.041443 379.909882,116.022072 
	C404.220673,109.298477 427.760162,100.784737 448.287903,85.581657 
	C452.694153,82.318367 456.718445,78.540077 461.116943,75.265335 
	C464.956299,72.406868 467.070160,73.324448 467.119965,78.064407 
	C467.364594,101.361198 468.207550,124.656738 466.617889,147.955154 
	C465.892365,158.588791 464.347656,169.116409 463.454010,179.715698 
	C462.856110,186.807373 462.318146,187.838043 455.218262,188.042160 
	C441.545715,188.435272 427.907349,187.550644 414.348846,185.837555 
	C386.738220,182.348999 359.761108,175.574478 332.607880,169.733307 
	C319.904999,167.000687 306.991669,165.634689 293.760437,163.458450 
z"/>
<path fill="#000000" opacity="1.000000" stroke="none" 
	d="
M296.494995,389.828003 
	C256.836670,379.539520 222.788498,360.159576 192.940353,332.403778 
	C195.733429,330.203033 197.145660,332.100006 198.593887,332.760162 
	C239.423172,351.373047 282.411774,357.951599 326.771118,353.779297 
	C370.240387,349.690704 407.635681,331.715454 436.471558,298.513550 
	C455.234161,276.910126 467.709808,251.467117 475.768768,223.973236 
	C476.980377,219.839722 478.534241,215.773071 478.885651,211.394287 
	C479.036530,209.514389 479.974915,207.647415 481.846497,207.058807 
	C492.906128,203.580551 504.328339,201.391235 515.408569,196.841187 
	C516.414246,200.569626 515.265564,203.200287 514.415955,205.781494 
	C499.176819,252.081314 479.733246,296.223175 448.335999,334.214966 
	C433.359894,352.336639 416.640900,368.512512 395.533875,379.344940 
	C366.105774,394.447906 335.057648,397.845947 302.793701,390.972565 
	C300.844299,390.557281 298.864655,390.283966 296.494995,389.828003 
z"/>
</svg>